<svg width="81" height="81" viewBox="0 0 81 81" fill="none" xmlns="http://www.w3.org/2000/svg">
<g clip-path="url(#clip0_1201_1182)">
<mask id="mask0_1201_1182" style="mask-type:luminance" maskUnits="userSpaceOnUse" x="0" y="0" width="81" height="81">
<path d="M0.366211 0.522949H80.3662V80.5229H0.366211V0.522949Z" fill="white"/>
</mask>
<g mask="url(#mask0_1201_1182)">
<path d="M62.1052 0.522949H18.6272C8.54194 0.522949 0.366211 8.69868 0.366211 18.7839V62.2619C0.366211 72.3472 8.54194 80.5229 18.6272 80.5229H62.1052C72.1905 80.5229 80.3662 72.3472 80.3662 62.2619V18.7839C80.3662 8.69868 72.1905 0.522949 62.1052 0.522949Z" fill="url(#paint0_linear_1201_1182)"/>
<path d="M62.1052 1.02295H18.6272C8.81808 1.02295 0.866211 8.97482 0.866211 18.7839V62.2619C0.866211 72.0711 8.81808 80.0229 18.6272 80.0229H62.1052C71.9143 80.0229 79.8662 72.0711 79.8662 62.2619V18.7839C79.8662 8.97482 71.9143 1.02295 62.1052 1.02295Z" stroke="white" stroke-opacity="0.08"/>
<g style="mix-blend-mode:color-dodge" filter="url(#filter0_f_1201_1182)">
<path fill-rule="evenodd" clip-rule="evenodd" d="M59.9314 66.176V30.524C59.9314 26.932 56.9754 24.314 53.6694 22.724C50.2084 21.059 45.5794 20.089 40.5834 20.089C35.5884 20.089 30.9584 21.059 27.4974 22.724C24.1914 24.314 21.2354 26.932 21.2354 30.524V65.307H21.2954C21.2556 65.5953 21.2355 65.886 21.2354 66.177C21.2354 69.769 24.1914 72.387 27.4974 73.977C30.9584 75.642 35.5874 76.611 40.5834 76.611C45.5784 76.611 50.2084 75.641 53.6694 73.977C56.9754 72.387 59.9314 69.768 59.9314 66.176ZM25.5834 30.524C25.5834 29.554 26.4734 28.041 29.3824 26.642C32.1364 25.317 36.0944 24.437 40.5834 24.437C45.0734 24.437 49.0304 25.317 51.7844 26.642C54.6944 28.042 55.5834 29.554 55.5834 30.524C55.5834 31.494 54.6934 33.007 51.7844 34.406C49.0304 35.731 45.0724 36.611 40.5834 36.611C36.0934 36.611 32.1364 35.731 29.3824 34.406C26.4724 33.007 25.5834 31.494 25.5834 30.524ZM55.5834 37.252C54.9734 37.65 54.3284 38.008 53.6694 38.325C50.2084 39.99 45.5794 40.959 40.5834 40.959C35.5884 40.959 30.9584 39.989 27.4974 38.325C26.8369 38.0089 26.1976 37.6505 25.5834 37.252V59.449C26.1976 59.0505 26.8369 58.6921 27.4974 58.376C30.9584 56.711 35.5874 55.742 40.5834 55.742C45.5784 55.742 50.2084 56.711 53.6694 58.376C54.3284 58.693 54.9734 59.051 55.5834 59.448V37.252ZM55.5834 66.176C55.5834 65.206 54.6934 63.694 51.7844 62.294C49.0304 60.969 45.0724 60.089 40.5834 60.089C36.0934 60.089 32.1364 60.969 29.3824 62.294C26.4724 63.694 25.5834 65.207 25.5834 66.176C25.5834 67.146 26.4734 68.659 29.3824 70.059C32.1364 71.383 36.0944 72.263 40.5834 72.263C45.0734 72.263 49.0304 71.383 51.7844 70.059C54.6944 68.659 55.5834 67.146 55.5834 66.176Z" fill="url(#paint1_linear_1201_1182)" fill-opacity="0.5"/>
</g>
<path fill-rule="evenodd" clip-rule="evenodd" d="M59.0625 59.2109V59.2169C59.0625 62.2849 56.5205 64.6819 53.2925 66.2339C49.9725 67.8309 45.4785 68.7819 40.5835 68.7819C35.6895 68.7819 31.1945 67.8309 27.8745 66.2339C24.6475 64.6819 22.1055 62.2849 22.1055 59.2169V23.5649C22.1055 20.4969 24.6475 18.0999 27.8755 16.5479C31.1955 14.9509 35.6895 13.9999 40.5845 13.9999C45.4785 13.9999 49.9735 14.9509 53.2935 16.5479C56.5205 18.0999 59.0625 20.4969 59.0625 23.5649V59.2109ZM24.7145 23.5649C24.7145 22.0699 26.0165 20.3369 29.0055 18.8989C31.9015 17.5059 35.9935 16.6089 40.5845 16.6089C45.1745 16.6089 49.2665 17.5059 52.1625 18.8989C55.1515 20.3369 56.4535 22.0699 56.4535 23.5649V23.5689C56.4515 25.0619 55.1485 26.7939 52.1625 28.2309C49.2665 29.6239 45.1745 30.5209 40.5845 30.5209C35.9935 30.5209 31.9015 29.6229 29.0055 28.2309C26.0165 26.7929 24.7145 25.0589 24.7145 23.5649ZM56.4545 28.5609C55.5505 29.3409 54.4675 30.0169 53.2935 30.5809C49.9735 32.1789 45.4785 33.1299 40.5835 33.1299C35.6895 33.1299 31.1945 32.1789 27.8745 30.5809C26.7005 30.0169 25.6175 29.3409 24.7145 28.5609V54.2209C25.6175 53.4409 26.7005 52.7649 27.8745 52.2009C31.1945 50.6029 35.6895 49.6509 40.5845 49.6509C45.4785 49.6509 49.9735 50.6029 53.2935 52.2009C54.4675 52.7649 55.5505 53.4409 56.4535 54.2209L56.4545 28.5609ZM56.4545 59.2169V59.2129C56.4515 57.7189 55.1485 55.9869 52.1625 54.5509C49.2665 53.1579 45.1745 52.2609 40.5845 52.2609C35.9935 52.2609 31.9015 53.1579 29.0055 54.5509C26.0165 55.9889 24.7145 57.7229 24.7145 59.2169C24.7145 60.7109 26.0165 62.4449 29.0055 63.8829C31.9015 65.2759 35.9935 66.1729 40.5845 66.1729C45.1745 66.1729 49.2665 65.2759 52.1625 63.8829C55.1515 62.4449 56.4545 60.7109 56.4545 59.2169Z" fill="url(#paint2_linear_1201_1182)" stroke="url(#paint3_linear_1201_1182)"/>
</g>
</g>
<defs>
<filter id="filter0_f_1201_1182" x="10.3654" y="9.21899" width="60.4363" height="78.262" filterUnits="userSpaceOnUse" color-interpolation-filters="sRGB">
<feFlood flood-opacity="0" result="BackgroundImageFix"/>
<feBlend mode="normal" in="SourceGraphic" in2="BackgroundImageFix" result="shape"/>
<feGaussianBlur stdDeviation="5.435" result="effect1_foregroundBlur_1201_1182"/>
</filter>
<linearGradient id="paint0_linear_1201_1182" x1="40.3662" y1="0.522949" x2="40.3662" y2="80.5229" gradientUnits="userSpaceOnUse">
<stop stop-color="#272727"/>
<stop offset="1" stop-color="#141414"/>
</linearGradient>
<linearGradient id="paint1_linear_1201_1182" x1="66.0184" y1="12.698" x2="13.4094" y2="82.046" gradientUnits="userSpaceOnUse">
<stop stop-color="#4642FF"/>
<stop offset="0.432" stop-color="#CB5FF1"/>
<stop offset="0.995" stop-color="#FFD029"/>
</linearGradient>
<linearGradient id="paint2_linear_1201_1182" x1="66.0185" y1="5.73888" x2="13.4105" y2="75.0869" gradientUnits="userSpaceOnUse">
<stop stop-color="#514EFF"/>
<stop offset="0.432" stop-color="#DC77FF"/>
<stop offset="0.995" stop-color="#FFD541"/>
</linearGradient>
<linearGradient id="paint3_linear_1201_1182" x1="66.0185" y1="5.73888" x2="13.4105" y2="75.0869" gradientUnits="userSpaceOnUse">
<stop stop-color="#514EFF"/>
<stop offset="0.432" stop-color="#DC77FF"/>
<stop offset="0.995" stop-color="#FFD541"/>
</linearGradient>
<clipPath id="clip0_1201_1182">
<rect width="80" height="80" fill="white" transform="translate(0.366211 0.522949)"/>
</clipPath>
</defs>
</svg>
